<svg width="61" height="66" viewBox="0 0 61 66" fill="none" xmlns="http://www.w3.org/2000/svg">
<path d="M17.864 20.584C15.9867 20.584 14.3867 21.032 13.064 21.928C11.7413 22.7813 10.632 23.9333 9.736 25.384C8.84 26.8347 8.09333 28.4773 7.496 30.312C7.15467 31.3787 6.87733 32.5733 6.664 33.896C6.45067 35.2187 6.28 36.712 6.152 38.376C6.06667 40.04 6.024 41.9173 6.024 44.008V51.048H0.2V42.92C0.2 39.5493 0.456 36.3707 0.968 33.384C1.52267 30.3973 2.48267 27.7307 3.848 25.384C5.21333 23.0373 7.15467 21.16 9.672 19.752L10.76 20.712H0.00800014V15.784H21.704C24.008 15.784 25.6293 15.6773 26.568 15.464C27.5067 15.2507 28.2107 14.9733 28.68 14.632C29.2347 14.2053 29.5973 13.736 29.768 13.224C29.9813 12.6693 30.088 12.0933 30.088 11.496C30.088 10.088 29.7467 8.72267 29.064 7.4C28.3813 6.03466 27.336 4.648 25.928 3.24L30.088 0.487999C32.0933 2.70667 33.4587 4.712 34.184 6.504C34.9093 8.25333 35.272 10.0453 35.272 11.88C35.272 13.544 34.888 14.9947 34.12 16.232C33.352 17.4693 32.3067 18.4507 30.984 19.176C29.704 19.9013 28.2107 20.3493 26.504 20.52L26.888 20.264C29.32 22.056 31.1333 24.1467 32.328 26.536C33.5227 28.8827 34.312 31.4427 34.696 34.216C35.08 36.9467 35.272 39.784 35.272 42.728V51.048H29.448V44.008C29.448 41.8747 29.384 39.9333 29.256 38.184C29.128 36.392 28.936 34.7707 28.68 33.32C28.4667 31.8693 28.1467 30.6107 27.72 29.544C26.696 26.7707 25.416 24.5947 23.88 23.016C22.3867 21.3947 20.3813 20.584 17.864 20.584ZM47.7045 65.3636C45.7955 65.3636 44.1439 65.0303 42.75 64.3636C41.3712 63.7121 40.3409 62.8106 39.6591 61.6591C38.9924 60.5227 38.7652 59.2121 38.9773 57.7273H41.5909C41.3485 59.3182 41.8182 60.6061 43 61.5909C44.197 62.5909 45.8106 63.0909 47.8409 63.0909C50.053 63.0909 51.9545 62.5227 53.5455 61.3864C55.1364 60.2652 56.0606 58.9318 56.3182 57.3864C56.6061 55.6439 56.0985 54.2652 54.7955 53.25C53.5076 52.2197 51.6439 51.7045 49.2045 51.7045H47.8864L48.2045 49.5682H49.4091C51.6364 49.5682 53.5076 49.0455 55.0227 48C56.5379 46.9545 57.4167 45.6591 57.6591 44.1136C57.9167 42.6591 57.5985 41.4242 56.7045 40.4091C55.8106 39.3939 54.3409 38.8864 52.2955 38.8864C50.4318 38.8864 48.7273 39.3864 47.1818 40.3864C45.6364 41.3864 44.7197 42.7045 44.4318 44.3409H41.9545C42.2121 42.8258 42.8333 41.5 43.8182 40.3636C44.803 39.2121 46.0303 38.3182 47.5 37.6818C48.9697 37.0455 50.553 36.7273 52.25 36.7273C54.0227 36.7273 55.5379 37.0455 56.7955 37.6818C58.0682 38.303 59 39.1742 59.5909 40.2955C60.197 41.4167 60.3788 42.7348 60.1364 44.25C59.8636 45.9167 59.1288 47.2727 57.9318 48.3182C56.75 49.3485 55.2348 50.0833 53.3864 50.5227V50.6364C55.3712 51.0152 56.8636 51.8333 57.8636 53.0909C58.8636 54.3333 59.2273 55.8258 58.9545 57.5682C58.697 59.0833 58.053 60.4242 57.0227 61.5909C56.0076 62.7576 54.697 63.6742 53.0909 64.3409C51.5 65.0227 49.7045 65.3636 47.7045 65.3636Z" fill="#A7F0DD"/>
</svg>
