<svg width="69" height="66" viewBox="0 0 69 66" fill="none" xmlns="http://www.w3.org/2000/svg">
<path d="M11.908 51.8802C8.58002 51.8646 5.89786 50.6147 3.86149 48.1304C1.82512 45.6462 0.818541 41.9294 0.841757 36.9801C0.854165 34.3348 1.22824 31.9046 1.96397 29.6893C2.74237 27.4743 3.88213 25.5383 5.38325 23.8813C6.88457 22.1817 8.70409 20.8675 10.8418 19.9389L11.7979 20.7754L0.918009 20.7243L0.941125 15.7964L31.0208 15.9375C33.2821 15.9481 34.8826 15.8489 35.8222 15.64C36.8046 15.4313 37.5099 15.1572 37.9381 14.8179C38.5374 14.394 38.9236 13.9265 39.0967 13.4153C39.27 12.8615 39.358 12.2859 39.3608 11.6885C39.3674 10.2806 39.0325 8.91365 38.356 7.58779C37.6798 6.21927 36.641 4.82772 35.2396 3.41313L39.4125 0.680672C41.4074 2.90872 42.7633 4.92043 43.4802 6.71582C44.1973 8.46853 44.5516 10.2622 44.543 12.0969C44.5392 12.9075 44.3638 13.9094 44.0169 15.1024C43.6701 16.2528 42.9612 17.2948 41.8902 18.2285C41.4617 18.6105 40.9267 18.9706 40.2851 19.309C39.6862 19.6475 39.0021 19.943 38.2329 20.1954C37.4639 20.4051 36.5671 20.5715 35.5425 20.6947L35.6083 20.311C37.4384 21.301 39.0108 22.631 40.3257 24.3012C41.6405 25.9714 42.6555 27.8962 43.3706 30.0756C44.0857 32.2549 44.4373 34.6246 44.4253 37.1846C44.4021 42.1339 43.3393 45.8409 41.2371 48.3058C39.1775 50.7708 36.4197 51.9952 32.9638 51.979C31.1291 51.9704 29.5302 51.7282 28.1671 51.2525C26.8469 50.7343 25.6559 49.9394 24.5943 48.8677C23.5328 47.7534 22.5156 46.2979 21.5427 44.5013L23.5922 44.1909C22.6007 46.3623 21.4836 47.9998 20.2411 49.1033C19.0412 50.207 17.7364 50.9475 16.3266 51.3249C14.9169 51.7023 13.444 51.8874 11.908 51.8802ZM12.6357 46.8276C14.769 46.8376 16.5005 46.099 17.8301 44.6119C19.1598 43.1248 19.9371 41.1444 20.162 38.6708L25.026 38.6936C25.2259 41.5532 26.0694 43.6479 27.5565 44.9775C29.0865 46.2647 30.7262 46.9124 32.4755 46.9206C34.5235 46.9302 36.1482 46.2125 37.3496 44.7675C38.5511 43.3224 39.16 40.8506 39.1764 37.352C39.1868 35.1333 38.8554 33.0197 38.1822 31.0112C37.5516 29.0029 36.5786 27.2277 35.2631 25.6855C33.9477 24.1433 32.2893 22.9408 30.288 22.0781C28.3295 21.1729 26.0277 20.7141 23.3824 20.7017L22.2944 20.6966C19.6491 20.6842 17.3219 21.0786 15.3127 21.8799C13.3036 22.6811 11.6129 23.8252 10.2406 25.3121C8.86827 26.799 7.83607 28.5435 7.14401 30.5456C6.45214 32.5051 6.10061 34.6795 6.0894 37.0688C6.07299 40.5674 6.63727 43.0661 7.78226 44.5648C8.92724 46.0635 10.5451 46.8178 12.6357 46.8276ZM46.3456 65.2259L46.6728 63.3183L58.6292 53.2607C60.2264 51.9045 61.5122 50.7439 62.4864 49.7787C63.4607 48.8136 64.1921 47.9306 64.6807 47.1299C65.1845 46.3141 65.5143 45.4595 65.67 44.5663C65.9348 43.0221 65.5545 41.74 64.529 40.72C63.5034 39.7 62.074 39.1858 60.2407 39.1772C58.3013 39.1681 56.6169 39.7208 55.1874 40.8353C53.7731 41.9347 52.9335 43.2869 52.6684 44.8917L50.0775 44.8795C50.4668 42.6238 51.6272 40.7504 53.5584 39.2595C55.5049 37.7534 57.8039 37.0066 60.4554 37.0191C62.1978 37.0272 63.681 37.3675 64.9052 38.0399C66.1293 38.7124 67.0189 39.6332 67.5741 40.8025C68.1444 41.9567 68.305 43.2605 68.0557 44.7139C67.8686 45.8342 67.4925 46.8779 66.9274 47.845C66.3622 48.812 65.5012 49.861 64.3444 50.992C63.2027 52.123 61.6584 53.5021 59.7113 55.1294L50.5158 62.8818L50.5152 62.9954L66.3105 63.0695L65.8909 65.3176L46.3456 65.2259Z" fill="#A7F0DD"/>
</svg>
