<svg width="70" height="65" viewBox="0 0 70 65" fill="none" xmlns="http://www.w3.org/2000/svg">
<path d="M30.8314 50.7378C28.6557 50.7781 26.8135 50.3855 25.3046 49.56C23.7957 48.7344 22.5171 47.6699 21.4688 46.3665C20.4196 45.0203 19.455 43.63 18.575 42.1954C17.4737 40.3381 16.5305 38.9474 15.7452 38.0231C14.9599 37.0988 14.2229 36.4723 13.534 36.1437C12.8878 35.8143 12.1381 35.6575 11.2849 35.6733C9.83448 35.7002 8.7127 36.1904 7.91956 37.1439C7.1683 38.054 6.80768 39.3196 6.83772 40.9406C6.86302 42.3057 7.18772 43.7079 7.81182 45.1473C8.43514 46.544 9.25003 47.9158 10.2565 49.2627L5.30211 51.3388C4.29564 49.9919 3.45587 48.4285 2.78278 46.6487C2.10969 44.8689 1.75615 43.0618 1.72216 41.2274C1.685 39.2224 2.07879 37.4442 2.90352 35.8926C3.72825 34.3411 4.85792 33.1253 6.29253 32.2452C7.72634 31.3225 9.3391 30.8445 11.1308 30.8113C13.7757 30.7623 15.8774 31.3421 17.4361 32.5508C18.9948 33.7595 20.523 35.6301 22.0209 38.1628C23.0329 39.8084 23.9548 41.1995 24.7867 42.3363C25.6612 43.4723 26.5946 44.3298 27.5868 44.9089C28.5782 45.4453 29.7778 45.7004 31.1856 45.6743C33.1906 45.6372 34.7808 45.0956 35.9563 44.0497C37.1318 43.0037 37.9798 41.5584 38.5004 39.7138C39.021 37.8692 39.2592 35.7524 39.2149 33.3635C39.1445 29.5668 38.4809 25.9945 37.224 22.6465C35.9671 19.2985 34.2911 16.3638 32.196 13.8421C30.1436 11.3197 27.8028 9.35743 25.1737 7.95523C22.5439 6.51037 19.8212 5.81403 17.0056 5.8662C15.5979 5.89229 14.5587 6.2316 13.888 6.88414C13.2173 7.53668 12.8906 8.3322 12.908 9.27071C12.927 10.2945 13.2619 11.0991 13.9129 11.6845C14.6065 12.2691 15.5506 12.5503 16.745 12.5282C18.2808 12.4997 19.6166 12.0482 20.7526 11.1737C21.8878 10.2565 22.5415 8.68679 22.7137 6.46455L27.6492 6.82118C27.3087 9.17455 26.6404 11.1073 25.6442 12.6193C24.6473 14.0887 23.4086 15.1785 21.9282 15.8887C20.4477 16.5989 18.8117 16.9706 17.02 17.0038C15.1856 17.0378 13.5804 16.7689 12.2042 16.1969C10.8707 15.6242 9.83068 14.7687 9.08413 13.6303C8.33678 12.4493 7.9473 11.0056 7.91568 9.2992C7.88881 7.84878 8.24863 6.54056 8.99516 5.37453C9.74089 4.16584 10.79 3.20757 12.1424 2.49973C13.5375 1.79109 15.1949 1.41898 17.1146 1.38341C20.8686 1.31385 24.3825 2.10222 27.6562 3.74851C30.9292 5.35215 33.8091 7.62452 36.296 10.5656C38.8248 13.4633 40.8081 16.8618 42.2459 20.7611C43.6838 24.6605 44.4446 28.8711 44.5284 33.393C44.6011 37.3177 44.0639 40.5709 42.9169 43.1525C41.8117 45.6908 40.2251 47.5765 38.1569 48.8097C36.0887 50.0429 33.6469 50.6856 30.8314 50.7378ZM56.9984 63.8028C55.0897 63.8382 53.4323 63.5355 52.0262 62.8948C50.6356 62.2689 49.5888 61.3867 48.8857 60.248C48.1981 59.1242 47.9466 57.818 48.1312 56.3295L50.7444 56.2811C50.5315 57.8762 51.0249 59.1551 52.2248 60.1179C53.4401 61.0956 55.0627 61.5656 57.0927 61.528C59.3044 61.487 61.1951 60.8837 62.7647 59.718C64.3345 58.5675 65.2339 57.2173 65.4628 55.6673C65.7184 53.9199 65.1853 52.5507 63.8637 51.5599C62.557 50.5536 60.6841 50.0731 58.2451 50.1183L56.9272 50.1427L57.2057 48.0008L58.4101 47.9785C60.6369 47.9372 62.4982 47.3799 63.9937 46.3066C65.4892 45.2333 66.3438 43.9217 66.5576 42.3721C66.7882 40.913 66.4472 39.6842 65.5346 38.6858C64.622 37.6874 63.1431 37.2072 61.098 37.2451C59.2347 37.2796 57.5397 37.8111 56.0131 38.8395C54.4864 39.868 53.5943 41.2029 53.3368 42.8444L50.8599 42.8902C51.0894 41.3706 51.6859 40.0335 52.6496 38.8791C53.6129 37.7096 54.8234 36.793 56.2811 36.1296C57.7387 35.4661 59.3159 35.1186 61.0126 35.0872C62.785 35.0543 64.3058 35.3444 65.5749 35.9573C66.859 36.5549 67.8068 37.4087 68.4183 38.5187C69.0451 39.6285 69.2513 40.9431 69.037 42.4625C68.7952 44.1339 68.0856 45.5034 66.9082 46.5708C65.7456 47.6228 64.2444 48.3856 62.4043 48.8592L62.4064 48.9728C64.398 49.3148 65.9053 50.1052 66.9284 51.344C67.9513 52.5677 68.3425 54.0531 68.1021 55.8003C67.8726 57.32 67.2536 58.6726 66.2451 59.8581C65.2518 61.0434 63.9584 61.9842 62.3649 62.6805C60.7869 63.3917 58.9981 63.7658 56.9984 63.8028Z" fill="#9CAC54"/>
</svg>
