<svg width="48" height="53" viewBox="0 0 48 53" fill="none" xmlns="http://www.w3.org/2000/svg">
<path d="M12.6227 52.0438C10.2336 52.005 8.0869 51.5006 6.18243 50.5308C4.32062 49.5618 2.87034 48.2153 1.83158 46.4915C0.792831 44.7677 0.292548 42.7326 0.330735 40.3863C0.361285 38.5092 0.77266 36.8303 1.56486 35.3497C2.35775 33.8264 3.48673 32.6286 4.95178 31.7563C6.41684 30.8841 8.17323 30.4646 10.221 30.4979C12.482 30.5347 14.2864 31.0975 15.6342 32.1862C16.982 33.275 17.641 34.7366 17.6111 36.571C17.6 37.2536 17.5249 37.9351 17.3858 38.6156C17.2467 39.2961 17.024 39.8685 16.7178 40.3329L12.3726 39.8782C12.4635 39.5383 12.5544 39.1984 12.6452 38.8585C12.7368 38.4759 12.785 38.1353 12.7899 37.8367C12.8051 36.8981 12.5606 36.1901 12.0563 35.7125C11.5521 35.2349 10.852 34.9888 9.95608 34.9742C8.63359 34.9527 7.51677 35.4039 6.60561 36.3279C5.73781 37.2098 5.28967 38.5254 5.26121 40.2745C5.22996 42.1942 5.86552 43.7835 7.16788 45.0422C8.47023 46.3008 10.4866 46.9524 13.2169 46.9968C16.1605 47.0448 18.327 46.3333 19.7165 44.8623C21.1059 43.3914 21.9274 41.4205 22.181 38.9497L27.0444 39.0288C27.2111 41.8906 28.009 43.9945 29.438 45.3406C30.9103 46.6447 32.6703 47.3135 34.718 47.3468C36.2538 47.3718 37.4965 47.0506 38.4462 46.3833C39.3958 45.716 40.0937 44.7886 40.5397 43.601C40.9865 42.3708 41.222 41.0091 41.2463 39.516C41.2783 37.5536 40.9266 35.5636 40.1913 33.546C39.4568 31.4858 38.0847 29.2658 36.0752 26.8862L40.6685 23.8885C42.5955 26.0962 44.0508 28.4455 45.0344 30.9365C46.0614 33.3855 46.5502 36.1245 46.5009 39.1534C46.4509 42.225 45.8763 44.7547 44.7772 46.7424C43.7214 48.6881 42.3323 50.1377 40.6099 51.0912C38.8882 52.0019 37.0461 52.4413 35.0837 52.4094C32.908 52.374 31.1421 52.0679 29.7859 51.4911C28.4298 50.9143 27.2911 50.085 26.37 49.0032C25.4495 47.8787 24.5325 46.5409 23.6189 44.9899L25.6068 44.7662C24.4643 46.7959 23.2444 48.3335 21.9473 49.3792C20.6927 50.4256 19.2941 51.1496 17.7514 51.5512C16.252 51.9109 14.5424 52.0751 12.6227 52.0438ZM24.143 32.4527C23.1191 32.4361 22.2505 32.0592 21.537 31.3222C20.8663 30.5858 20.5392 29.7057 20.5559 28.6819C20.5739 27.5727 20.9301 26.661 21.6245 25.9469C22.3616 25.2334 23.242 24.8851 24.2659 24.9017C25.3324 24.9191 26.2224 25.2963 26.9358 26.0333C27.6493 26.7704 27.9969 27.6935 27.9789 28.8027C27.9622 29.8265 27.5854 30.6952 26.8483 31.4086C26.1113 32.122 25.2095 32.4701 24.143 32.4527ZM0.650468 20.7409L0.730662 15.8135L33.3663 16.3447C35.67 16.3822 37.2929 16.3019 38.2349 16.1039C39.1769 15.9058 39.864 15.6397 40.2962 15.3053C40.9004 14.8884 41.292 14.4254 41.4709 13.9162C41.6506 13.3644 41.7453 12.7899 41.755 12.1926C41.7779 10.7848 41.4589 9.41412 40.7978 8.08052C40.1375 6.70426 39.1148 5.30077 37.7299 3.87004L41.9342 1.1861C43.9031 3.43711 45.2356 5.46439 45.9317 7.26796C46.6285 9.02886 46.9619 10.8265 46.9321 12.661C46.9189 13.4715 46.7319 14.4713 46.3712 15.6602C46.0538 16.8072 45.3329 17.8409 44.2084 18.7614C43.1266 19.6826 41.8357 20.3444 40.3356 20.7467C38.8782 21.1497 36.9123 21.331 34.438 21.2908L0.650468 20.7409Z" fill="#97CD97"/>
</svg>
