<svg width="86" height="67" viewBox="0 0 86 67" fill="none" xmlns="http://www.w3.org/2000/svg">
<path d="M13.1831 52.8705C10.794 52.9008 8.63354 52.4588 6.70179 51.5445C4.81271 50.6297 3.32406 49.3258 2.23584 47.6328C1.14763 45.9398 0.588643 43.9201 0.558893 41.5736C0.535093 39.6964 0.897696 38.0063 1.6467 36.5034C2.39517 34.9578 3.489 33.7278 4.92819 32.8135C6.36738 31.8992 8.11089 31.429 10.1587 31.4031C12.4199 31.3744 14.2398 31.8847 15.6186 32.934C16.9973 33.9833 17.6983 35.4251 17.7216 37.2597C17.7302 37.9423 17.6749 38.6257 17.5556 39.3099C17.4362 39.9942 17.2302 40.5728 16.9375 41.0459L12.581 40.7171C12.6631 40.4601 12.7444 40.139 12.8248 39.7539C12.9047 39.3262 12.9428 38.9631 12.939 38.6644C12.9271 37.7258 12.6622 37.0251 12.1443 36.5623C11.6264 36.0995 10.9195 35.8738 10.0235 35.8852C8.70098 35.9019 7.59768 36.3853 6.71366 37.3352C5.82909 38.2425 5.39789 39.5708 5.42007 41.3199C5.44441 43.2398 6.1257 44.8099 7.46395 46.0304C8.84486 47.2503 10.9005 47.843 13.631 47.8084C16.5747 47.7711 18.7198 46.9971 20.0661 45.4866C21.4124 43.9761 22.1765 41.9822 22.3584 39.5051L27.222 39.4434C27.4716 42.2991 28.33 44.3791 29.7973 45.6833C31.3068 46.9442 33.0854 47.5617 35.1333 47.5358C37.5224 47.5055 39.1765 46.7164 40.0956 45.1687C41.0142 43.5782 41.4597 41.6951 41.4321 39.5193C41.4002 37.0021 40.923 34.704 40.0006 32.6249C39.1203 30.5025 37.9446 28.6399 36.4735 27.0371C35.0024 25.4343 33.386 24.1534 31.6244 23.1943C29.8628 22.2352 28.1057 21.6388 26.3533 21.405L36.1396 20.8969C38.3328 22.2345 40.2092 23.8322 41.7688 25.6899C43.3285 27.5476 44.528 29.6019 45.3673 31.8528C46.206 34.061 46.6416 36.445 46.674 39.0048C46.713 42.0765 46.2119 44.6217 45.1707 46.6404C44.1717 48.6159 42.8251 50.1051 41.131 51.108C39.4364 52.0682 37.6078 52.5608 35.6453 52.5857C33.4695 52.6133 31.6955 52.3584 30.3232 51.8211C28.9509 51.2838 27.7888 50.4878 26.8366 49.4331C25.884 48.3357 24.9286 47.0251 23.9706 45.5011L25.9512 45.22C24.8679 47.2819 23.6931 48.8542 22.4267 49.937C21.203 51.0193 19.8259 51.7835 18.2954 52.2296C16.8071 52.6325 15.103 52.8461 13.1831 52.8705ZM0.309805 21.9272L0.24733 16.9996L32.8847 16.5858C35.1885 16.5566 36.8084 16.4294 37.7443 16.2041C38.6802 15.9789 39.3592 15.693 39.7816 15.3462C40.3734 14.912 40.7514 14.4379 40.9156 13.9238C41.0792 13.367 41.1573 12.7899 41.1497 12.1926C41.1318 10.7848 40.7732 9.42386 40.0738 8.10995C39.3739 6.75338 38.3111 5.38008 36.8853 3.99004L41.0101 1.18553C43.0434 3.37859 44.4341 5.36646 45.1821 7.14912C45.9295 8.88911 46.3149 10.6764 46.3381 12.5109C46.3484 13.3215 46.1905 14.3262 45.8643 15.5251C45.5803 16.6808 44.8896 17.735 43.7922 18.6877C42.7376 19.6398 41.4663 20.3386 39.9785 20.7842C38.5334 21.2292 36.5736 21.4674 34.0991 21.4988L0.309805 21.9272ZM56.8276 52.3171C53.5852 52.3582 50.7378 51.5836 48.2855 49.9932C45.8326 48.3602 43.6305 46.3186 41.6793 43.8685L44.8992 40.3714C46.7197 42.6098 48.5551 44.336 50.4053 45.55C52.2976 46.7208 54.481 47.2905 56.9555 47.2591C59.5153 47.2266 61.4886 46.3695 62.8754 44.6878C64.2622 43.0061 64.938 40.7787 64.9028 38.0056C64.865 35.0192 64.2984 32.4021 63.2032 30.1545C62.1079 27.9069 60.6114 25.9844 58.7137 24.387C56.8154 22.7469 54.6223 21.4093 52.1343 20.374L54.8236 15.4115C57.7425 16.7827 60.3461 18.5205 62.6343 20.6249C64.9225 22.7294 66.7247 25.2028 68.0408 28.045C69.3996 30.8867 70.1015 34.078 70.1464 37.6191C70.1815 40.3922 69.7225 42.8942 68.7694 45.1251C67.8157 47.3134 66.3444 49.0602 64.3555 50.3655C62.366 51.6282 59.8567 52.2787 56.8276 52.3171ZM78.4038 65.2286L82.2654 39.9504L81.9927 39.9538L74.5728 44.5255L75.0149 41.747L82.3223 37.2676L85.2312 37.2307L80.949 65.1963L78.4038 65.2286Z" fill="#97CD97"/>
</svg>
