<svg width="62" height="63" viewBox="0 0 62 63" fill="none" xmlns="http://www.w3.org/2000/svg">
<path d="M19.3918 49.2868C15.936 49.319 12.8155 48.708 10.0304 47.4539C7.28751 46.1567 5.11428 44.1715 3.51067 41.4983C1.90666 38.7824 1.0848 35.2912 1.04509 31.0248C1.02206 28.5502 1.46993 26.2419 2.38871 24.1C3.30748 21.958 4.56995 20.0688 6.17613 18.4325C7.82497 16.7957 9.73317 15.5192 11.9007 14.603C14.0683 13.6868 16.368 13.2174 18.7999 13.1948C20.5492 13.1785 22.1724 13.3767 23.6697 13.7895C25.1665 14.1595 26.5591 14.7866 27.8474 15.6707C29.1783 16.5543 30.4058 17.7803 31.5298 19.3486L31.7846 19.2182C31.0852 17.4326 30.2161 15.734 29.177 14.1222C28.138 12.5105 26.9303 11.1137 25.5539 9.93176C24.1771 8.70719 22.6535 7.76132 20.9833 7.09417C19.3126 6.38436 17.5173 6.03838 15.5974 6.05625C12.7388 6.08285 10.7381 6.59216 9.59532 7.58417C8.49477 8.53312 7.95184 9.7969 7.96653 11.3755C7.97567 12.3568 8.17639 13.2936 8.56871 14.186C9.0037 15.078 9.56589 15.8835 10.2553 16.6024L6.83278 20.2184C5.71198 18.9915 4.76025 17.5923 3.97759 16.0208C3.19453 14.4067 2.79546 12.789 2.78037 11.1677C2.75734 8.69319 3.31505 6.72525 4.4535 5.26392C5.59195 3.8026 7.09683 2.74321 8.96812 2.08577C10.8817 1.38526 12.9264 1.02489 15.1023 1.00464C18.3875 0.974064 21.2305 1.5663 23.6312 2.78134C26.0742 3.95332 28.2226 5.55474 30.0762 7.58557C32.016 9.70095 33.5094 11.9911 34.5564 14.4562C35.6033 16.9212 36.3311 19.4745 36.7397 22.1162C37.1483 24.7578 37.3649 27.4013 37.3896 30.0465C37.4273 34.0996 36.7341 37.5622 35.3101 40.4343C33.8861 43.3063 31.8158 45.5017 29.0992 47.0204C26.4248 48.496 23.189 49.2515 19.3918 49.2868ZM19.4076 44.1024C22.3088 44.0754 24.6927 43.4772 26.5592 42.3078C28.4684 41.138 29.8832 39.5674 30.8035 37.5961C31.7239 35.6248 32.173 33.4445 32.1507 31.0553C32.1253 28.3247 31.5277 26.0049 30.3579 24.0957C29.2303 22.1434 27.7018 20.6642 25.7724 19.6581C23.8429 18.6521 21.6623 18.1603 19.2304 18.183C16.5852 18.2076 14.2864 18.7837 12.3342 19.9112C10.3815 20.9961 8.881 22.5248 7.83264 24.4973C6.78389 26.4272 6.27162 28.6934 6.29584 31.2959C6.33396 35.3917 7.53682 38.5593 9.90443 40.7987C12.3147 43.0377 15.4824 44.139 19.4076 44.1024ZM39.7235 62.2822L40.0239 60.3702L51.8384 50.1462C53.4165 48.7678 54.6859 47.5893 55.6465 46.6106C56.6072 45.6319 57.3262 44.7388 57.8035 43.9313C58.2959 43.1085 58.6137 42.2494 58.7569 41.3541C59 39.8063 58.6018 38.5297 57.5621 37.5242C56.5224 36.5187 55.0859 36.0244 53.2526 36.0415C51.3133 36.0595 49.6368 36.6358 48.223 37.7702C46.8243 38.8893 46.0036 40.2531 45.761 41.8615L43.1702 41.8856C43.528 39.6246 44.662 37.7351 46.5722 36.2173C48.4974 34.6842 50.7857 33.9053 53.4371 33.8806C55.1794 33.8644 56.6673 34.1839 57.9007 34.8391C59.1342 35.4943 60.0366 36.4026 60.608 37.564C61.1945 38.7101 61.3733 40.0115 61.1444 41.4683C60.973 42.5911 60.6115 43.64 60.06 44.6149C59.5084 45.5897 58.6622 46.6507 57.5213 47.7977C56.3956 48.9446 54.8707 50.3452 52.9466 51.9996L43.8604 59.8799L43.8615 59.9936L59.6563 59.8466L59.2681 62.1003L39.7235 62.2822Z" fill="#9CAC54"/>
</svg>
