<svg width="42" height="53" viewBox="0 0 42 53" fill="none" xmlns="http://www.w3.org/2000/svg">
<path d="M29.1274 52.3232C26.8664 52.2855 24.9964 51.8277 23.5175 50.9496C22.0813 50.0722 20.8623 48.9637 19.8604 47.6242C18.902 46.2427 18.0083 44.8196 17.1792 43.3549C16.144 41.46 15.2502 40.0369 14.498 39.0856C13.7457 38.1343 13.0312 37.4823 12.3543 37.1296C11.7201 36.7777 10.9763 36.5946 10.1231 36.5804C8.67266 36.5562 7.53433 37.0066 6.70814 37.9316C5.92531 38.8147 5.52039 40.0668 5.49337 41.6879C5.47062 43.0531 5.74578 44.4658 6.31886 45.9263C6.89265 47.344 7.65876 48.7436 8.61721 50.1251L3.59284 52.0257C2.63439 50.6442 1.85015 49.0522 1.2401 47.2498C0.630759 45.4047 0.341376 43.565 0.371949 41.7306C0.404655 39.7682 0.860414 38.0262 1.73922 36.5046C2.61804 34.9831 3.78978 33.8078 5.25447 32.9787C6.71987 32.107 8.34844 31.6861 10.1402 31.716C11.9319 31.7458 13.4418 32.0484 14.6697 32.6236C15.8976 33.1988 16.9716 34.0488 17.8916 35.1736C18.8544 36.2991 19.8121 37.7233 20.7649 39.4461C21.7183 41.1262 22.5907 42.5489 23.3821 43.7143C24.2161 44.8804 25.1187 45.7702 26.09 46.3838C27.0619 46.9547 28.2518 47.2519 29.6596 47.2754C31.7927 47.3109 33.3839 46.5694 34.4334 45.0506C35.4828 43.5319 36.0271 41.5994 36.0662 39.253C36.0982 37.3333 35.7469 35.3645 35.0125 33.3467C34.278 31.3288 32.9061 29.151 30.8968 26.8132L35.2994 23.8141C37.2682 26.0232 38.7656 28.3525 39.7915 30.802C40.8602 33.2521 41.3707 35.9063 41.3231 38.7646C41.2505 43.116 40.1488 46.4901 38.0179 48.8869C35.8877 51.2411 32.9242 52.3865 29.1274 52.3232ZM20.3894 31.2467C19.3656 31.2296 18.4971 30.8524 17.7839 30.1151C17.0708 29.3778 16.7231 28.4759 16.7409 27.4094C16.7586 26.3428 17.1362 25.453 17.8735 24.7399C18.6108 24.0267 19.4914 23.6787 20.5153 23.6957C21.5818 23.7135 22.4503 24.0907 23.1208 24.8273C23.8339 25.5646 24.1816 26.4666 24.1638 27.5331C24.1461 28.5996 23.7685 29.4894 23.0312 30.2026C22.3365 30.9164 21.456 31.2645 20.3894 31.2467ZM0.785753 20.7426L0.867873 15.8152L28.1281 16.2696C30.4318 16.308 32.0547 16.2283 32.9967 16.0307C33.9388 15.833 34.6474 15.5674 35.1223 15.234C35.684 14.8166 36.0545 14.3534 36.2336 13.8443C36.4562 13.2933 36.5724 12.7191 36.5824 12.1219C36.6058 10.7141 36.2873 9.34324 35.6268 8.00938C34.967 6.63286 33.9449 5.22897 32.5605 3.7977L36.7658 1.11541C38.7339 3.36718 40.0656 5.39499 40.761 7.19883C41.4571 8.96 41.7898 10.7578 41.7593 12.5922C41.7458 13.4028 41.5584 14.4024 41.1972 15.5913C40.8367 16.7374 40.1154 17.7709 39.0332 18.6916C37.9084 19.6117 36.5959 20.2726 35.0957 20.6743C33.6381 21.0767 31.6935 21.2577 29.2618 21.2171L0.785753 20.7426Z" fill="#A7F0DD"/>
</svg>
