<svg width="255" height="256" viewBox="0 0 255 256" fill="none" xmlns="http://www.w3.org/2000/svg">
<g filter="url(#filter0_g_1_2)">
<rect x="4" y="4" width="247" height="248" fill="transparent"/>
<rect x="4.5" y="4.5" width="246" height="247" stroke="transparent"/>
<path d="M80.7558 127.643C78.6543 128.78 76.5359 129.392 74.4005 129.48C72.3027 129.548 70.3786 129.085 68.6284 128.091C66.8781 127.098 65.4447 125.569 64.3281 123.505C63.4349 121.854 62.9707 120.189 62.9356 118.51C62.8803 116.793 63.2774 115.196 64.127 113.718C64.9766 112.239 66.302 111.013 68.1033 110.039C70.0923 108.963 71.9409 108.569 73.6493 108.857C75.3578 109.146 76.6484 110.097 77.5214 111.711C77.8462 112.311 78.1148 112.942 78.327 113.603C78.5393 114.265 78.6257 114.873 78.5863 115.428L74.5758 117.161C74.4885 116.82 74.4011 116.479 74.3138 116.138C74.2061 115.76 74.0812 115.439 73.9391 115.177C73.4925 114.351 72.9323 113.854 72.2587 113.685C71.585 113.515 70.8542 113.644 70.0661 114.07C68.9028 114.7 68.1504 115.64 67.8089 116.892C67.4847 118.086 67.7388 119.453 68.5712 120.991C69.4847 122.68 70.8176 123.754 72.5697 124.213C74.3218 124.672 76.3987 124.251 78.8004 122.952C81.3898 121.551 82.9296 119.869 83.4199 117.906C83.9103 115.943 83.6605 113.823 82.6706 111.545L86.9487 109.23C88.4966 111.643 90.2231 113.086 92.1284 113.559C94.0509 113.974 95.9128 113.695 97.7141 112.72C99.0651 111.989 99.991 111.1 100.492 110.053C100.993 109.006 101.146 107.856 100.953 106.602C100.74 105.311 100.278 104.008 99.5671 102.695C98.6332 100.969 97.3515 99.4063 95.7218 98.008C94.0718 96.5721 91.7879 95.3094 88.87 94.2199L91.4049 89.3558C94.1666 90.3358 96.5865 91.6705 98.6646 93.3599C100.76 94.9914 102.528 97.1393 103.97 99.8038C105.431 102.506 106.17 104.992 106.186 107.264C106.22 109.477 105.719 111.422 104.685 113.097C103.63 114.734 102.24 116.02 100.514 116.954C98.6 117.989 96.9107 118.588 95.4459 118.75C93.9811 118.912 92.5821 118.747 91.249 118.255C89.8955 117.726 88.4406 117.009 86.8841 116.105L88.5073 114.936C88.5061 117.265 88.1964 119.203 87.5781 120.75C86.9973 122.277 86.133 123.594 84.985 124.7C83.8543 125.748 82.4445 126.729 80.7558 127.643ZM81.1969 104.92C80.2963 105.407 79.3544 105.504 78.3713 105.211C77.4257 104.898 76.7093 104.291 76.2221 103.391C75.6943 102.415 75.558 101.446 75.8133 100.483C76.1061 99.4999 76.7029 98.7647 77.6035 98.2775C78.5417 97.7699 79.5024 97.6626 80.4854 97.9554C81.4685 98.2482 82.224 98.8825 82.7518 99.8582C83.2391 100.759 83.3363 101.701 83.0434 102.684C82.7506 103.667 82.1351 104.412 81.1969 104.92ZM54.9793 106.224L52.6344 101.889L81.3427 86.3586C83.3692 85.2623 84.7445 84.397 85.4686 83.7627C86.1927 83.1285 86.6611 82.5597 86.874 82.0565C87.1964 81.397 87.3108 80.8015 87.2173 80.2699C87.1035 79.7009 86.9044 79.1537 86.6202 78.6283C85.9503 77.3899 85.0004 76.3514 83.7706 75.5129C82.5205 74.6369 80.9413 73.9146 79.033 73.3462L81.3824 68.9463C84.2019 69.9435 86.3569 71.0576 87.8475 72.2886C89.3179 73.4821 90.4895 74.8857 91.3625 76.4994C91.7482 77.2124 92.0752 78.1755 92.3434 79.3887C92.6289 80.544 92.5071 81.7984 91.978 83.1518C91.4864 84.485 90.6855 85.6945 89.575 86.7803C88.5021 87.8458 86.8774 88.9673 84.7008 90.1448L54.9793 106.224Z" fill="#97CD97" fill-opacity="0.4"/>
<path d="M125.628 108.986C123.821 107.626 122.577 106.156 121.897 104.577C121.251 103.023 120.916 101.409 120.893 99.7368C120.93 98.0558 121.043 96.3792 121.234 94.7069C121.51 92.5655 121.623 90.8889 121.574 89.677C121.525 88.4652 121.33 87.5177 120.99 86.8346C120.683 86.177 120.189 85.5917 119.507 85.0787C118.348 84.2065 117.163 83.9018 115.95 84.1645C114.798 84.4187 113.734 85.1936 112.76 86.4892C111.939 87.5802 111.331 88.8849 110.936 90.4032C110.567 91.8875 110.364 93.4701 110.327 95.1511L105.145 93.7352C105.182 92.0542 105.483 90.3053 106.049 88.4886C106.641 86.6377 107.488 84.9793 108.591 83.5132C109.771 81.9449 111.164 80.8036 112.769 80.0892C114.375 79.3749 116.014 79.1128 117.686 79.3031C119.384 79.4593 120.949 80.0761 122.381 81.1535C123.813 82.2309 124.856 83.3631 125.511 84.5502C126.167 85.7374 126.536 87.0563 126.619 88.5071C126.736 89.9836 126.674 91.6987 126.432 93.6525C126.216 95.5721 126.085 97.2359 126.04 98.6439C126.03 100.077 126.237 101.328 126.662 102.395C127.112 103.428 127.9 104.368 129.025 105.215C130.73 106.497 132.453 106.833 134.195 106.221C135.937 105.609 137.513 104.366 138.924 102.491C140.078 100.956 140.952 99.1573 141.543 97.0931C142.135 95.0289 142.306 92.4607 142.054 89.3883L147.379 89.55C147.673 92.4945 147.515 95.259 146.906 97.8437C146.33 100.454 145.183 102.901 143.464 105.186C140.847 108.663 137.973 110.745 134.84 111.432C131.733 112.084 128.662 111.269 125.628 108.986ZM130.948 86.7985C130.13 86.1829 129.649 85.3672 129.505 84.3515C129.362 83.3358 129.611 82.4018 130.252 81.5495C130.893 80.6971 131.722 80.1992 132.737 80.0557C133.753 79.9121 134.67 80.1482 135.488 80.7639C136.341 81.4052 136.822 82.2208 136.931 83.2109C137.075 84.2265 136.826 85.1606 136.184 86.0129C135.543 86.8653 134.715 87.3632 133.699 87.5067C132.717 87.6759 131.8 87.4398 130.948 86.7985ZM121.263 66.7773L124.226 62.8395L146.012 79.2311C147.853 80.6163 149.213 81.5059 150.091 81.8997C150.97 82.2936 151.699 82.4952 152.279 82.5047C152.979 82.4972 153.551 82.3402 153.995 82.0337C154.499 81.7187 154.931 81.3226 155.29 80.8453C156.136 79.7201 156.685 78.4239 156.934 76.9566C157.21 75.4551 157.208 73.7186 156.929 71.7469L161.908 72.0489C162.177 75.0275 162.062 77.4508 161.564 79.3188C161.092 81.1528 160.305 82.8028 159.201 84.2688C158.714 84.9166 157.975 85.6152 156.984 86.3646C156.019 87.08 154.827 87.492 153.411 87.6008C151.96 87.6839 150.51 87.447 149.06 86.8902C147.644 86.3589 145.965 85.3622 144.021 83.9001L121.263 66.7773Z" fill="#A7F0DD" fill-opacity="0.4"/>
<path d="M100.821 175.931C97.7756 174.297 95.3332 172.261 93.4941 169.823C91.7128 167.366 90.7618 164.581 90.641 161.466C90.5403 158.313 91.4982 154.857 93.5148 151.097C94.6844 148.916 96.1869 147.107 98.0224 145.671C99.8578 144.235 101.873 143.185 104.068 142.523C106.301 141.88 108.588 141.678 110.929 141.917C113.27 142.156 115.512 142.85 117.655 144C119.197 144.826 120.525 145.781 121.639 146.862C122.774 147.907 123.694 149.126 124.398 150.521C125.14 151.935 125.627 153.6 125.859 155.516L126.145 155.524C126.39 153.622 126.445 151.715 126.308 149.802C126.172 147.889 125.785 146.084 125.146 144.386C124.528 142.65 123.647 141.088 122.503 139.7C121.379 138.275 119.972 137.108 118.28 136.201C115.76 134.849 113.761 134.334 112.282 134.654C110.861 134.957 109.777 135.804 109.031 137.196C108.567 138.061 108.293 138.978 108.208 139.95C108.16 140.941 108.266 141.917 108.525 142.879L103.785 144.404C103.392 142.79 103.231 141.105 103.3 139.351C103.389 137.559 103.817 135.949 104.584 134.52C105.753 132.339 107.188 130.882 108.889 130.148C110.59 129.414 112.419 129.209 114.376 129.532C116.391 129.838 118.357 130.505 120.274 131.533C123.17 133.086 125.378 134.972 126.898 137.192C128.477 139.394 129.591 141.831 130.24 144.503C130.924 147.29 131.132 150.017 130.865 152.681C130.597 155.346 130.008 157.935 129.096 160.448C128.184 162.96 127.103 165.382 125.853 167.714C123.937 171.286 121.665 173.989 119.035 175.822C116.406 177.656 113.535 178.585 110.423 178.611C107.368 178.619 104.168 177.725 100.821 175.931ZM103.328 171.393C105.885 172.764 108.262 173.385 110.461 173.257C112.698 173.15 114.693 172.453 116.448 171.167C118.203 169.881 119.645 168.185 120.774 166.079C122.065 163.673 122.656 161.351 122.549 159.115C122.499 156.861 121.87 154.829 120.661 153.019C119.453 151.209 117.778 149.73 115.635 148.58C113.303 147.33 111.011 146.73 108.757 146.78C106.523 146.792 104.472 147.411 102.605 148.637C100.757 149.825 99.2185 151.566 97.9884 153.859C96.0525 157.469 95.5842 160.825 96.5835 163.927C97.6204 167.049 99.8685 169.537 103.328 171.393ZM112.4 197.101L113.583 195.569L128.858 192.285C130.905 191.835 132.584 191.412 133.897 191.016C135.21 190.619 136.27 190.182 137.077 189.703C137.904 189.219 138.596 188.618 139.152 187.902C140.109 186.662 140.374 185.351 139.945 183.969C139.517 182.588 138.495 181.464 136.88 180.597C135.171 179.681 133.424 179.38 131.638 179.695C129.874 180.004 128.499 180.805 127.513 182.098L125.229 180.874C126.63 179.063 128.533 177.952 130.938 177.539C133.363 177.121 135.744 177.538 138.08 178.791C139.616 179.615 140.767 180.61 141.533 181.778C142.3 182.945 142.654 184.176 142.597 185.469C142.56 186.756 142.091 187.983 141.19 189.15C140.5 190.052 139.679 190.798 138.727 191.388C137.774 191.977 136.522 192.501 134.97 192.958C133.432 193.422 131.421 193.917 128.939 194.443L117.183 196.984L117.129 197.084L131.049 204.549L129.625 206.339L112.4 197.101Z" fill="#9CAC54" fill-opacity="0.4"/>
<path d="M159.157 162.52C156.951 163.437 154.781 163.83 152.648 163.7C150.554 163.554 148.687 162.897 147.047 161.73C145.407 160.563 144.137 158.896 143.237 156.729C142.516 154.996 142.224 153.292 142.361 151.618C142.48 149.905 143.038 148.357 144.034 146.973C145.03 145.589 146.474 144.504 148.365 143.718C150.453 142.85 152.332 142.647 154.002 143.108C155.672 143.569 156.859 144.647 157.563 146.341C157.825 146.972 158.028 147.627 158.172 148.306C158.316 148.986 158.34 149.599 158.244 150.147L154.078 151.463C154.058 151.193 154.014 150.865 153.946 150.478C153.861 150.051 153.761 149.7 153.647 149.424C153.286 148.557 152.78 148.005 152.127 147.768C151.474 147.531 150.734 147.585 149.906 147.929C148.685 148.436 147.841 149.295 147.373 150.506C146.89 151.677 146.984 153.07 147.655 154.686C148.392 156.459 149.608 157.663 151.304 158.298C153.04 158.917 155.168 158.702 157.69 157.655C160.409 156.525 162.112 155.009 162.8 153.106C163.488 151.203 163.455 149.068 162.703 146.701L167.194 144.834C168.488 147.392 170.059 149.004 171.906 149.669C173.776 150.278 175.657 150.189 177.548 149.403C179.755 148.487 180.996 147.139 181.274 145.36C181.535 143.542 181.248 141.629 180.413 139.619C179.447 137.295 178.15 135.339 176.52 133.752C174.913 132.109 173.129 130.818 171.167 129.877C169.206 128.936 167.229 128.349 165.237 128.114C163.245 127.879 161.392 127.979 159.678 128.413L168.574 124.302C171.107 124.727 173.443 125.513 175.582 126.657C177.72 127.801 179.598 129.262 181.214 131.039C182.814 132.777 184.105 134.828 185.088 137.192C186.266 140.029 186.748 142.578 186.532 144.839C186.34 147.044 185.644 148.927 184.444 150.488C183.228 152.01 181.714 153.147 179.902 153.901C177.892 154.735 176.151 155.159 174.677 155.17C173.203 155.182 171.829 154.875 170.553 154.251C169.26 153.586 167.886 152.725 166.43 151.667L168.163 150.669C167.925 152.986 167.419 154.883 166.646 156.359C165.913 157.819 164.919 159.04 163.664 160.024C162.433 160.951 160.93 161.783 159.157 162.52ZM135.698 138.585L133.807 134.035L163.949 121.511C166.076 120.626 167.533 119.906 168.318 119.349C169.103 118.792 169.627 118.274 169.89 117.795C170.277 117.171 170.452 116.591 170.413 116.052C170.358 115.475 170.216 114.91 169.986 114.358C169.446 113.058 168.607 111.928 167.469 110.969C166.315 109.97 164.818 109.09 162.977 108.331L165.763 104.193C168.466 105.472 170.496 106.8 171.854 108.177C173.195 109.514 174.217 111.03 174.921 112.724C175.232 113.472 175.459 114.464 175.602 115.698C175.769 116.877 175.52 118.112 174.855 119.404C174.23 120.681 173.31 121.802 172.095 122.769C170.919 123.72 169.189 124.67 166.903 125.619L135.698 138.585ZM199.464 145.772C196.47 147.016 193.539 147.356 190.671 146.792C187.786 146.189 184.983 145.113 182.26 143.564L183.948 139.121C186.471 140.521 188.817 141.441 190.986 141.879C193.178 142.262 195.416 141.979 197.702 141.03C200.066 140.047 201.579 138.518 202.24 136.441C202.902 134.364 202.701 132.045 201.637 129.484C200.491 126.726 198.991 124.507 197.139 122.828C195.286 121.149 193.182 119.921 190.826 119.145C188.454 118.328 185.921 117.902 183.226 117.867L183.877 112.26C187.096 112.447 190.159 113.092 193.066 114.194C195.973 115.297 198.566 116.922 200.845 119.071C203.163 121.203 205.001 123.904 206.36 127.175C207.424 129.736 207.929 132.229 207.874 134.654C207.803 137.04 207.087 139.209 205.726 141.161C204.349 143.073 202.262 144.61 199.464 145.772ZM224.295 149.732L218.477 124.831L218.225 124.936L213.038 131.939L212.415 129.196L217.532 122.319L220.218 121.203L226.646 148.755L224.295 149.732Z" fill="#97CD97" fill-opacity="0.4"/>
<path d="M25.3121 165.635C22.0141 166.08 19.1845 165.214 16.8234 163.037C14.4623 160.859 12.9502 157.317 12.287 152.413C11.9326 149.791 11.9661 147.332 12.3876 145.037C12.8514 142.735 13.7118 140.66 14.9687 138.811C16.2199 136.919 17.8396 135.366 19.828 134.149L20.8908 134.845L10.1089 136.303L9.44859 131.42L39.2574 127.389C41.4983 127.086 43.0696 126.766 43.9712 126.429C44.9151 126.086 45.5756 125.717 45.9527 125.321C46.4874 124.819 46.8051 124.302 46.9056 123.772C47.0004 123.199 47.0078 122.617 46.9278 122.025C46.7391 120.63 46.2179 119.322 45.3642 118.103C44.5047 116.842 43.283 115.608 41.6991 114.401L45.4528 111.116C47.7374 113.046 49.3591 114.851 50.318 116.529C51.2712 118.166 51.8707 119.893 52.1165 121.711C52.2251 122.514 52.1903 123.531 52.0121 124.76C51.8282 125.948 51.2707 127.078 50.3394 128.151C49.968 128.589 49.4881 129.02 48.8996 129.444C48.3534 129.862 47.7169 130.25 46.9901 130.606C46.2576 130.92 45.3926 131.21 44.3949 131.474L44.4069 131.085C46.3565 131.811 48.0982 132.91 49.6319 134.382C51.1656 135.854 52.4376 137.619 53.448 139.679C54.4583 141.738 55.135 144.036 55.478 146.573C56.1412 151.478 55.6026 155.296 53.8624 158.029C52.1644 160.755 49.603 162.35 46.1782 162.813C44.3601 163.059 42.7431 163.041 41.3271 162.759C39.9478 162.429 38.6582 161.807 37.4582 160.892C36.2525 159.936 35.0434 158.636 33.8308 156.991L35.8174 156.4C35.1365 158.688 34.2573 160.464 33.1797 161.729C32.1445 162.989 30.9549 163.903 29.6111 164.472C28.2672 165.041 26.8342 165.429 25.3121 165.635ZM25.3323 160.53C27.4464 160.244 29.0587 159.273 30.1694 157.615C31.28 155.958 31.7753 153.889 31.6551 151.408L36.4752 150.757C37.0697 153.561 38.1955 155.518 39.8525 156.629C41.5462 157.692 43.2598 158.106 44.9934 157.872C47.0229 157.597 48.5324 156.661 49.5219 155.063C50.5115 153.466 50.7718 150.933 50.3031 147.466C50.0058 145.268 49.3845 143.22 48.4393 141.325C47.5364 139.423 46.3267 137.8 44.8101 136.455C43.2936 135.11 41.4845 134.149 39.3829 133.572C37.3179 132.947 34.9747 132.812 32.3532 133.166L31.275 133.312C28.6535 133.667 26.4034 134.38 24.5248 135.452C22.6462 136.524 21.1304 137.891 19.9775 139.554C18.8245 141.217 18.0442 143.088 17.6363 145.166C17.2228 147.203 17.1761 149.405 17.4963 151.773C17.965 155.24 18.8703 157.636 20.212 158.962C21.5537 160.287 23.2604 160.81 25.3323 160.53ZM61.2673 174.077L61.3269 172.143L71.7734 160.524C73.1673 158.96 74.2797 157.632 75.1108 156.541C75.9418 155.451 76.5437 154.475 76.9166 153.614C77.3025 152.736 77.5106 151.844 77.541 150.938C77.5891 149.372 77.0347 148.155 75.8777 147.287C74.7207 146.419 73.2337 146.108 71.4169 146.354C69.495 146.613 67.9035 147.394 66.6423 148.696C65.3941 149.981 64.75 151.437 64.71 153.063L62.1424 153.41C62.2153 151.122 63.1047 149.106 64.8106 147.361C66.5295 145.6 68.7027 144.542 71.3303 144.187C73.0571 143.953 74.5732 144.084 75.8787 144.581C77.1842 145.077 78.1929 145.865 78.9048 146.947C79.6297 148.01 79.9694 149.279 79.9241 150.753C79.8941 151.889 79.6664 152.975 79.2407 154.011C78.8151 155.047 78.1079 156.205 77.119 157.485C76.1451 158.764 74.8069 160.344 73.1042 162.225L65.0722 171.178L65.0875 171.29L80.7405 169.174L80.6366 171.458L61.2673 174.077Z" fill="#A7F0DD" fill-opacity="0.4"/>
<path d="M195.182 93.9255C193.103 94.5678 191.224 94.7016 189.545 94.3271C187.867 93.9525 186.343 93.2845 184.974 92.323C183.593 91.3207 182.28 90.2525 181.037 89.1183C179.464 87.6394 178.172 86.5649 177.161 85.8947C176.15 85.2245 175.268 84.8271 174.515 84.7025C173.803 84.5653 173.039 84.6226 172.224 84.8744C170.838 85.3026 169.896 86.0848 169.398 87.2209C168.929 88.3036 168.934 89.6196 169.412 91.1687C169.815 92.4732 170.516 93.7303 171.515 94.94C172.501 96.109 173.665 97.2009 175.005 98.2158L170.821 101.585C169.481 100.57 168.24 99.3009 167.1 97.7776C165.959 96.2543 165.118 94.6162 164.577 92.8633C163.985 90.9473 163.87 89.1296 164.232 87.4101C164.594 85.6907 165.342 84.2092 166.476 82.9658C167.598 81.6815 169.015 80.7749 170.727 80.246C173.254 79.4653 175.435 79.4393 177.267 80.1682C179.1 80.897 181.087 82.2703 183.229 84.2881C184.658 85.5884 185.929 86.6692 187.044 87.5306C188.199 88.3794 189.334 88.9444 190.448 89.2254C191.549 89.4658 192.772 89.3781 194.118 88.9626C196.034 88.3707 197.411 87.4093 198.25 86.0783C199.09 84.7473 199.503 83.1235 199.492 81.2068C199.48 79.2902 199.122 77.1904 198.417 74.9075C197.296 71.2794 195.667 68.0313 193.531 65.1634C191.395 62.2955 188.971 59.9408 186.258 58.0993C183.587 56.2453 180.793 55.0093 177.879 54.3914C174.951 53.7328 172.142 53.8191 169.451 54.6502C168.106 55.0658 167.202 55.68 166.739 56.493C166.275 57.306 166.182 58.1609 166.459 59.0578C166.761 60.0361 167.306 60.7162 168.094 61.0981C168.923 61.4673 169.908 61.4756 171.049 61.123C172.517 60.6697 173.675 59.8653 174.524 58.71C175.36 57.5139 175.553 55.8245 175.101 53.6417L179.942 52.6152C180.268 54.9707 180.162 57.0129 179.624 58.742C179.074 60.4302 178.186 61.8209 176.961 62.9139C175.736 64.0069 174.267 64.8179 172.555 65.3468C170.802 65.8883 169.185 66.0751 167.704 65.9074C166.264 65.7271 165.028 65.1936 163.995 64.307C162.949 63.3796 162.174 62.1006 161.671 60.47C161.242 59.084 161.225 57.7273 161.619 56.3999C162 55.0318 162.742 53.8201 163.845 52.7649C164.989 51.6971 166.478 50.8798 168.313 50.3131C171.9 49.2049 175.495 48.9876 179.097 49.6612C182.686 50.294 186.083 51.6783 189.288 53.8141C192.522 55.8965 195.37 58.6115 197.833 61.959C200.296 65.3065 202.195 69.1408 203.53 73.462C204.688 77.2124 205.075 80.4869 204.689 83.2855C204.331 86.0307 203.33 88.2826 201.685 90.0411C200.04 91.7996 197.872 93.0944 195.182 93.9255ZM223.946 99.2192C222.122 99.7827 220.446 99.9516 218.917 99.7261C217.408 99.5105 216.157 98.9533 215.166 98.0543C214.193 97.1653 213.589 95.9802 213.354 94.4989L215.851 93.7275C216.089 95.319 216.918 96.4109 218.338 97.0031C219.777 97.6052 221.466 97.6067 223.406 97.0075C225.519 96.3546 227.168 95.2505 228.353 93.6952C229.542 92.1543 230.032 90.6076 229.822 89.055C229.582 87.3052 228.691 86.1377 227.146 85.5523C225.611 84.948 223.679 85.0059 221.348 85.7259L220.088 86.1149L219.762 83.9798L220.913 83.6243C223.041 82.9669 224.674 81.9152 225.814 80.4691C226.953 79.023 227.41 77.5259 227.185 75.9778C227.002 74.512 226.334 73.4261 225.18 72.72C224.026 72.0139 222.472 71.9627 220.518 72.5664C218.737 73.1165 217.256 74.0973 216.075 75.5089C214.893 76.9205 214.407 78.4505 214.614 80.099L212.248 80.8301C212.046 79.3064 212.249 77.8564 212.854 76.48C213.455 75.0891 214.364 73.8727 215.581 72.8309C216.797 71.7891 218.216 71.0178 219.837 70.517C221.531 69.9937 223.073 69.8505 224.462 70.0874C225.861 70.3053 227.009 70.8627 227.904 71.7595C228.814 72.6519 229.377 73.8577 229.593 75.3769C229.824 77.0498 229.522 78.5623 228.687 79.9145C227.862 81.2477 226.631 82.397 224.995 83.3624L225.028 83.471C227.036 83.2471 228.704 83.5883 230.03 84.4947C231.353 85.3867 232.141 86.7053 232.394 88.4506C232.595 89.9743 232.376 91.4455 231.736 92.8643C231.11 94.2786 230.129 95.5412 228.791 96.6522C227.472 97.7732 225.857 98.6289 223.946 99.2192Z" fill="#9CAC54" fill-opacity="0.4"/>
<path d="M168.864 181.584C166.987 181.584 165.387 182.032 164.064 182.928C162.741 183.781 161.632 184.933 160.736 186.384C159.84 187.835 159.093 189.477 158.496 191.312C158.155 192.379 157.877 193.573 157.664 194.896C157.451 196.219 157.28 197.712 157.152 199.376C157.067 201.04 157.024 202.917 157.024 205.008V212.048H151.2V203.92C151.2 200.549 151.456 197.371 151.968 194.384C152.523 191.397 153.483 188.731 154.848 186.384C156.213 184.037 158.155 182.16 160.672 180.752L161.76 181.712H151.008V176.784H172.704C175.008 176.784 176.629 176.677 177.568 176.464C178.507 176.251 179.211 175.973 179.68 175.632C180.235 175.205 180.597 174.736 180.768 174.224C180.981 173.669 181.088 173.093 181.088 172.496C181.088 171.088 180.747 169.723 180.064 168.4C179.381 167.035 178.336 165.648 176.928 164.24L181.088 161.488C183.093 163.707 184.459 165.712 185.184 167.504C185.909 169.253 186.272 171.045 186.272 172.88C186.272 174.544 185.888 175.995 185.12 177.232C184.352 178.469 183.307 179.451 181.984 180.176C180.704 180.901 179.211 181.349 177.504 181.52L177.888 181.264C180.32 183.056 182.133 185.147 183.328 187.536C184.523 189.883 185.312 192.443 185.696 195.216C186.08 197.947 186.272 200.784 186.272 203.728V212.048H180.448V205.008C180.448 202.875 180.384 200.933 180.256 199.184C180.128 197.392 179.936 195.771 179.68 194.32C179.467 192.869 179.147 191.611 178.72 190.544C177.696 187.771 176.416 185.595 174.88 184.016C173.387 182.395 171.381 181.584 168.864 181.584ZM198.705 226.364C196.795 226.364 195.144 226.03 193.75 225.364C192.371 224.712 191.341 223.811 190.659 222.659C189.992 221.523 189.765 220.212 189.977 218.727H192.591C192.348 220.318 192.818 221.606 194 222.591C195.197 223.591 196.811 224.091 198.841 224.091C201.053 224.091 202.955 223.523 204.545 222.386C206.136 221.265 207.061 219.932 207.318 218.386C207.606 216.644 207.098 215.265 205.795 214.25C204.508 213.22 202.644 212.705 200.205 212.705H198.886L199.205 210.568H200.409C202.636 210.568 204.508 210.045 206.023 209C207.538 207.955 208.417 206.659 208.659 205.114C208.917 203.659 208.598 202.424 207.705 201.409C206.811 200.394 205.341 199.886 203.295 199.886C201.432 199.886 199.727 200.386 198.182 201.386C196.636 202.386 195.72 203.705 195.432 205.341H192.955C193.212 203.826 193.833 202.5 194.818 201.364C195.803 200.212 197.03 199.318 198.5 198.682C199.97 198.045 201.553 197.727 203.25 197.727C205.023 197.727 206.538 198.045 207.795 198.682C209.068 199.303 210 200.174 210.591 201.295C211.197 202.417 211.379 203.735 211.136 205.25C210.864 206.917 210.129 208.273 208.932 209.318C207.75 210.348 206.235 211.083 204.386 211.523V211.636C206.371 212.015 207.864 212.833 208.864 214.091C209.864 215.333 210.227 216.826 209.955 218.568C209.697 220.083 209.053 221.424 208.023 222.591C207.008 223.758 205.697 224.674 204.091 225.341C202.5 226.023 200.705 226.364 198.705 226.364Z" fill="#A7F0DD" fill-opacity="0.4"/>
</g>
<defs>
<filter id="filter0_g_1_2" x="0" y="0" width="255" height="256" filterUnits="userSpaceOnUse" color-interpolation-filters="sRGB">
<feFlood flood-opacity="0" result="BackgroundImageFix"/>
<feBlend mode="normal" in="SourceGraphic" in2="BackgroundImageFix" result="shape"/>
<feTurbulence type="fractalNoise" baseFrequency="0.25 0.25" numOctaves="3" seed="1331" />
<feDisplacementMap in="shape" scale="8" xChannelSelector="R" yChannelSelector="G" result="displacedImage" width="100%" height="100%" />
<feMerge result="effect1_texture_1_2">
<feMergeNode in="displacedImage"/>
</feMerge>
</filter>
</defs>
</svg>
