<svg width="444" height="356" viewBox="0 0 444 356" fill="none" xmlns="http://www.w3.org/2000/svg">
<g filter="url(#filter0_g_1_2)">
<rect x="4" y="4" width="436" height="348" fill="white"/>
<rect x="4.5" y="4.5" width="435" height="347" stroke="black"/>
<path d="M134.623 205.044C132.234 205.005 130.087 204.501 128.182 203.531C126.321 202.562 124.87 201.215 123.832 199.492C122.793 197.768 122.293 195.733 122.331 193.386C122.361 191.509 122.773 189.83 123.565 188.35C124.358 186.826 125.487 185.629 126.952 184.756C128.417 183.884 130.173 183.465 132.221 183.498C134.482 183.535 136.286 184.097 137.634 185.186C138.982 186.275 139.641 187.737 139.611 189.571C139.6 190.254 139.525 190.935 139.386 191.616C139.247 192.296 139.024 192.869 138.718 193.333L134.373 192.878C134.463 192.538 134.554 192.198 134.645 191.858C134.737 191.476 134.785 191.135 134.79 190.837C134.805 189.898 134.561 189.19 134.056 188.712C133.552 188.235 132.852 187.989 131.956 187.974C130.634 187.953 129.517 188.404 128.606 189.328C127.738 190.21 127.29 191.525 127.261 193.274C127.23 195.194 127.866 196.783 129.168 198.042C130.47 199.301 132.487 199.952 135.217 199.997C138.16 200.045 140.327 199.333 141.716 197.862C143.106 196.391 143.927 194.421 144.181 191.95L149.044 192.029C149.211 194.891 150.009 196.994 151.438 198.341C152.91 199.645 154.67 200.313 156.718 200.347C158.254 200.372 159.497 200.051 160.446 199.383C161.396 198.716 162.094 197.789 162.54 196.601C162.986 195.371 163.222 194.009 163.246 192.516C163.278 190.554 162.927 188.564 162.191 186.546C161.457 184.486 160.085 182.266 158.075 179.886L162.669 176.889C164.596 179.096 166.051 181.445 167.034 183.936C168.061 186.386 168.55 189.125 168.501 192.153C168.451 195.225 167.876 197.755 166.777 199.742C165.721 201.688 164.332 203.138 162.61 204.091C160.888 205.002 159.046 205.441 157.084 205.409C154.908 205.374 153.142 205.068 151.786 204.491C150.43 203.914 149.291 203.085 148.37 202.003C147.449 200.879 146.532 199.541 145.619 197.99L147.607 197.766C146.464 199.796 145.244 201.334 143.947 202.379C142.693 203.426 141.294 204.15 139.751 204.551C138.252 204.911 136.542 205.075 134.623 205.044ZM146.143 185.453C145.119 185.436 144.25 185.059 143.537 184.322C142.866 183.586 142.539 182.706 142.556 181.682C142.574 180.573 142.93 179.661 143.625 178.947C144.362 178.233 145.242 177.885 146.266 177.902C147.332 177.919 148.222 178.296 148.936 179.033C149.649 179.77 149.997 180.693 149.979 181.803C149.962 182.827 149.585 183.695 148.848 184.409C148.111 185.122 147.21 185.47 146.143 185.453ZM122.65 173.741L122.731 168.814L155.366 169.345C157.67 169.382 159.293 169.302 160.235 169.104C161.177 168.906 161.864 168.64 162.296 168.305C162.9 167.888 163.292 167.425 163.471 166.916C163.651 166.364 163.745 165.79 163.755 165.193C163.778 163.785 163.459 162.414 162.798 161.081C162.137 159.704 161.115 158.301 159.73 156.87L163.934 154.186C165.903 156.437 167.236 158.464 167.932 160.268C168.628 162.029 168.962 163.827 168.932 165.661C168.919 166.472 168.732 167.471 168.371 168.66C168.054 169.807 167.333 170.841 166.208 171.761C165.127 172.683 163.836 173.344 162.336 173.747C160.878 174.15 158.912 174.331 156.438 174.291L122.65 173.741Z" fill="#97CD97" fill-opacity="0.4"/>
<path d="M236.127 87.3232C233.866 87.2855 231.996 86.8277 230.518 85.9496C229.081 85.0722 227.862 83.9637 226.86 82.6242C225.902 81.2427 225.008 79.8196 224.179 78.3549C223.144 76.46 222.25 75.0369 221.498 74.0856C220.746 73.1343 220.031 72.4823 219.354 72.1296C218.72 71.7777 217.976 71.5946 217.123 71.5804C215.673 71.5562 214.534 72.0066 213.708 72.9316C212.925 73.8147 212.52 75.0668 212.493 76.6879C212.471 78.0531 212.746 79.4658 213.319 80.9263C213.893 82.344 214.659 83.7436 215.617 85.1251L210.593 87.0257C209.634 85.6442 208.85 84.0522 208.24 82.2498C207.631 80.4047 207.341 78.565 207.372 76.7306C207.405 74.7682 207.86 73.0262 208.739 71.5046C209.618 69.9831 210.79 68.8078 212.254 67.9787C213.72 67.107 215.348 66.6861 217.14 66.716C218.932 66.7458 220.442 67.0484 221.67 67.6236C222.898 68.1988 223.972 69.0488 224.892 70.1736C225.854 71.2991 226.812 72.7233 227.765 74.4461C228.718 76.1262 229.591 77.5489 230.382 78.7143C231.216 79.8804 232.119 80.7702 233.09 81.3838C234.062 81.9547 235.252 82.2519 236.66 82.2754C238.793 82.3109 240.384 81.5694 241.433 80.0506C242.483 78.5319 243.027 76.5994 243.066 74.253C243.098 72.3333 242.747 70.3645 242.012 68.3467C241.278 66.3288 239.906 64.151 237.897 61.8132L242.299 58.8141C244.268 61.0232 245.766 63.3525 246.792 65.802C247.86 68.2521 248.371 70.9063 248.323 73.7646C248.251 78.116 247.149 81.4901 245.018 83.8869C242.888 86.2411 239.924 87.3865 236.127 87.3232ZM227.389 66.2467C226.366 66.2296 225.497 65.8524 224.784 65.1151C224.071 64.3778 223.723 63.4759 223.741 62.4094C223.759 61.3428 224.136 60.453 224.874 59.7399C225.611 59.0267 226.491 58.6787 227.515 58.6957C228.582 58.7135 229.45 59.0907 230.121 59.8273C230.834 60.5646 231.182 61.4666 231.164 62.5331C231.146 63.5996 230.769 64.4894 230.031 65.2026C229.337 65.9164 228.456 66.2645 227.389 66.2467ZM207.786 55.7426L207.868 50.8152L235.128 51.2696C237.432 51.308 239.055 51.2283 239.997 51.0307C240.939 50.833 241.647 50.5674 242.122 50.234C242.684 49.8166 243.054 49.3534 243.234 48.8443C243.456 48.2933 243.572 47.7191 243.582 47.1219C243.606 45.7141 243.287 44.3432 242.627 43.0094C241.967 41.6329 240.945 40.229 239.561 38.7977L243.766 36.1154C245.734 38.3672 247.066 40.395 247.761 42.1988C248.457 43.96 248.79 45.7578 248.759 47.5922C248.746 48.4028 248.558 49.4024 248.197 50.5913C247.837 51.7374 247.115 52.7709 246.033 53.6916C244.908 54.6117 243.596 55.2726 242.096 55.6743C240.638 56.0767 238.693 56.2577 236.262 56.2171L207.786 55.7426Z" fill="#A7F0DD" fill-opacity="0.4"/>
<path d="M311.127 204.323C308.866 204.286 306.996 203.828 305.518 202.95C304.081 202.072 302.862 200.964 301.86 199.624C300.902 198.243 300.008 196.82 299.179 195.355C298.144 193.46 297.25 192.037 296.498 191.086C295.746 190.134 295.031 189.482 294.354 189.13C293.72 188.778 292.976 188.595 292.123 188.58C290.673 188.556 289.534 189.007 288.708 189.932C287.925 190.815 287.52 192.067 287.493 193.688C287.471 195.053 287.746 196.466 288.319 197.926C288.893 199.344 289.659 200.744 290.617 202.125L285.593 204.026C284.634 202.644 283.85 201.052 283.24 199.25C282.631 197.405 282.341 195.565 282.372 193.731C282.405 191.768 282.86 190.026 283.739 188.505C284.618 186.983 285.79 185.808 287.254 184.979C288.72 184.107 290.348 183.686 292.14 183.716C293.932 183.746 295.442 184.048 296.67 184.624C297.898 185.199 298.972 186.049 299.892 187.174C300.854 188.299 301.812 189.723 302.765 191.446C303.718 193.126 304.591 194.549 305.382 195.714C306.216 196.88 307.119 197.77 308.09 198.384C309.062 198.955 310.252 199.252 311.66 199.275C313.793 199.311 315.384 198.569 316.433 197.051C317.483 195.532 318.027 193.599 318.066 191.253C318.098 189.333 317.747 187.365 317.012 185.347C316.278 183.329 314.906 181.151 312.897 178.813L317.299 175.814C319.268 178.023 320.766 180.353 321.792 182.802C322.86 185.252 323.371 187.906 323.323 190.765C323.251 195.116 322.149 198.49 320.018 200.887C317.888 203.241 314.924 204.387 311.127 204.323ZM302.389 183.247C301.366 183.23 300.497 182.852 299.784 182.115C299.071 181.378 298.723 180.476 298.741 179.409C298.759 178.343 299.136 177.453 299.874 176.74C300.611 176.027 301.491 175.679 302.515 175.696C303.582 175.714 304.45 176.091 305.121 176.827C305.834 177.565 306.182 178.467 306.164 179.533C306.146 180.6 305.769 181.489 305.031 182.203C304.337 182.916 303.456 183.264 302.389 183.247ZM282.786 172.743L282.868 167.815L310.128 168.27C312.432 168.308 314.055 168.228 314.997 168.031C315.939 167.833 316.647 167.567 317.122 167.234C317.684 166.817 318.054 166.353 318.234 165.844C318.456 165.293 318.572 164.719 318.582 164.122C318.606 162.714 318.287 161.343 317.627 160.009C316.967 158.633 315.945 157.229 314.561 155.798L318.766 153.115C320.734 155.367 322.066 157.395 322.761 159.199C323.457 160.96 323.79 162.758 323.759 164.592C323.746 165.403 323.558 166.402 323.197 167.591C322.837 168.737 322.115 169.771 321.033 170.692C319.908 171.612 318.596 172.273 317.096 172.674C315.638 173.077 313.693 173.258 311.262 173.217L282.786 172.743Z" fill="#A7F0DD" fill-opacity="0.4"/>
<path d="M178.392 142.287C174.936 142.319 171.815 141.708 169.03 140.454C166.288 139.157 164.114 137.171 162.511 134.498C160.907 131.782 160.085 128.291 160.045 124.025C160.022 121.55 160.47 119.242 161.389 117.1C162.307 114.958 163.57 113.069 165.176 111.432C166.825 109.796 168.733 108.519 170.901 107.603C173.068 106.687 175.368 106.217 177.8 106.195C179.549 106.178 181.172 106.377 182.67 106.789C184.167 107.16 185.559 107.787 186.847 108.671C188.178 109.554 189.406 110.78 190.53 112.349L190.785 112.218C190.085 110.433 189.216 108.734 188.177 107.122C187.138 105.51 185.93 104.114 184.554 102.932C183.177 101.707 181.654 100.761 179.983 100.094C178.313 99.3844 176.517 99.0384 174.597 99.0562C171.739 99.0829 169.738 99.5922 168.595 100.584C167.495 101.533 166.952 102.797 166.967 104.375C166.976 105.357 167.176 106.294 167.569 107.186C168.004 108.078 168.566 108.883 169.255 109.602L165.833 113.218C164.712 111.991 163.76 110.592 162.978 109.021C162.195 107.407 161.795 105.789 161.78 104.168C161.757 101.693 162.315 99.7252 163.454 98.2639C164.592 96.8026 166.097 95.7432 167.968 95.0858C169.882 94.3853 171.926 94.0249 174.102 94.0046C177.388 93.9741 180.23 94.5663 182.631 95.7813C185.074 96.9533 187.223 98.5547 189.076 100.586C191.016 102.701 192.509 104.991 193.556 107.456C194.603 109.921 195.331 112.475 195.74 115.116C196.148 117.758 196.365 120.401 196.39 123.046C196.427 127.1 195.734 130.562 194.31 133.434C192.886 136.306 190.816 138.502 188.099 140.02C185.425 141.496 182.189 142.251 178.392 142.287ZM178.408 137.102C181.309 137.075 183.693 136.477 185.559 135.308C187.468 134.138 188.883 132.567 189.804 130.596C190.724 128.625 191.173 126.445 191.151 124.055C191.125 121.325 190.528 119.005 189.358 117.096C188.23 115.143 186.702 113.664 184.772 112.658C182.843 111.652 180.662 111.16 178.23 111.183C175.585 111.208 173.286 111.784 171.334 112.911C169.382 113.996 167.881 115.525 166.833 117.497C165.784 119.427 165.272 121.693 165.296 124.296C165.334 128.392 166.537 131.559 168.904 133.799C171.315 136.038 174.482 137.139 178.408 137.102ZM198.724 155.282L199.024 153.37L210.838 143.146C212.417 141.768 213.686 140.589 214.647 139.611C215.607 138.632 216.326 137.739 216.804 136.931C217.296 136.108 217.614 135.249 217.757 134.354C218 132.806 217.602 131.53 216.562 130.524C215.522 129.519 214.086 129.024 212.253 129.041C210.313 129.06 208.637 129.636 207.223 130.77C205.824 131.889 205.004 133.253 204.761 134.861L202.17 134.886C202.528 132.625 203.662 130.735 205.572 129.217C207.497 127.684 209.786 126.905 212.437 126.881C214.179 126.864 215.667 127.184 216.901 127.839C218.134 128.494 219.037 129.403 219.608 130.564C220.194 131.71 220.373 133.012 220.144 134.468C219.973 135.591 219.612 136.64 219.06 137.615C218.508 138.59 217.662 139.651 216.521 140.798C215.396 141.945 213.871 143.345 211.947 145L202.86 152.88L202.861 152.994L218.656 152.847L218.268 155.1L198.724 155.282Z" fill="#9CAC54" fill-opacity="0.4"/>
<path d="M236.183 144.87C233.794 144.901 231.634 144.459 229.702 143.545C227.813 142.63 226.324 141.326 225.236 139.633C224.148 137.94 223.589 135.92 223.559 133.574C223.535 131.696 223.898 130.006 224.647 128.503C225.395 126.958 226.489 125.728 227.928 124.813C229.367 123.899 231.111 123.429 233.159 123.403C235.42 123.374 237.24 123.885 238.619 124.934C239.997 125.983 240.698 127.425 240.722 129.26C240.73 129.942 240.675 130.626 240.556 131.31C240.436 131.994 240.23 132.573 239.938 133.046L235.581 132.717C235.663 132.46 235.744 132.139 235.825 131.754C235.905 131.326 235.943 130.963 235.939 130.664C235.927 129.726 235.662 129.025 235.144 128.562C234.626 128.1 233.919 127.874 233.024 127.885C231.701 127.902 230.598 128.385 229.714 129.335C228.829 130.243 228.398 131.571 228.42 133.32C228.444 135.24 229.126 136.81 230.464 138.03C231.845 139.25 233.901 139.843 236.631 139.808C239.575 139.771 241.72 138.997 243.066 137.487C244.412 135.976 245.176 133.982 245.358 131.505L250.222 131.443C250.472 134.299 251.33 136.379 252.797 137.683C254.307 138.944 256.085 139.562 258.133 139.536C260.522 139.505 262.177 138.716 263.096 137.169C264.014 135.578 264.46 133.695 264.432 131.519C264.4 129.002 263.923 126.704 263.001 124.625C262.12 122.503 260.945 120.64 259.473 119.037C258.002 117.434 256.386 116.153 254.624 115.194C252.863 114.235 251.106 113.639 249.353 113.405L259.14 112.897C261.333 114.234 263.209 115.832 264.769 117.69C266.329 119.548 267.528 121.602 268.367 123.853C269.206 126.061 269.642 128.445 269.674 131.005C269.713 134.077 269.212 136.622 268.171 138.64C267.172 140.616 265.825 142.105 264.131 143.108C262.436 144.068 260.608 144.561 258.645 144.586C256.469 144.613 254.695 144.358 253.323 143.821C251.951 143.284 250.789 142.488 249.837 141.433C248.884 140.336 247.929 139.025 246.971 137.501L248.951 137.22C247.868 139.282 246.693 140.854 245.427 141.937C244.203 143.019 242.826 143.783 241.295 144.23C239.807 144.632 238.103 144.846 236.183 144.87ZM223.31 113.927L223.247 109L255.885 108.586C258.189 108.557 259.808 108.429 260.744 108.204C261.68 107.979 262.359 107.693 262.782 107.346C263.373 106.912 263.751 106.438 263.916 105.924C264.079 105.367 264.157 104.79 264.15 104.193C264.132 102.785 263.773 101.424 263.074 100.11C262.374 98.7534 261.311 97.3801 259.885 95.99L264.01 93.1855C266.043 95.3786 267.434 97.3665 268.182 99.1491C268.93 100.889 269.315 102.676 269.338 104.511C269.348 105.321 269.19 106.326 268.864 107.525C268.58 108.681 267.89 109.735 266.792 110.688C265.738 111.64 264.466 112.339 262.979 112.784C261.533 113.229 259.574 113.467 257.099 113.499L223.31 113.927ZM279.828 144.317C276.585 144.358 273.738 143.584 271.285 141.993C268.833 140.36 266.631 138.319 264.679 135.868L267.899 132.371C269.72 134.61 271.555 136.336 273.405 137.55C275.298 138.721 277.481 139.29 279.956 139.259C282.515 139.227 284.489 138.37 285.875 136.688C287.262 135.006 287.938 132.779 287.903 130.006C287.865 127.019 287.298 124.402 286.203 122.155C285.108 119.907 283.611 117.984 281.714 116.387C279.815 114.747 277.622 113.409 275.134 112.374L277.824 107.412C280.743 108.783 283.346 110.52 285.634 112.625C287.923 114.729 289.725 117.203 291.041 120.045C292.4 122.887 293.101 126.078 293.146 129.619C293.182 132.392 292.723 134.894 291.769 137.125C290.816 139.313 289.344 141.06 287.355 142.366C285.366 143.628 282.857 144.279 279.828 144.317ZM301.404 157.229L305.265 131.95L304.993 131.954L297.573 136.526L298.015 133.747L305.322 129.268L308.231 129.231L303.949 157.196L301.404 157.229Z" fill="#97CD97" fill-opacity="0.4"/>
<path d="M210.908 205.88C207.58 205.865 204.898 204.615 202.861 202.13C200.825 199.646 199.819 195.929 199.842 190.98C199.854 188.335 200.228 185.905 200.964 183.689C201.742 181.474 202.882 179.538 204.383 177.881C205.885 176.182 207.704 174.868 209.842 173.939L210.798 174.775L199.918 174.724L199.941 169.796L230.021 169.937C232.282 169.948 233.883 169.849 234.822 169.64C235.805 169.431 236.51 169.157 236.938 168.818C237.537 168.394 237.924 167.927 238.097 167.415C238.27 166.861 238.358 166.286 238.361 165.689C238.367 164.281 238.032 162.914 237.356 161.588C236.68 160.219 235.641 158.828 234.24 157.413L238.412 154.681C240.407 156.909 241.763 158.92 242.48 160.716C243.197 162.469 243.552 164.262 243.543 166.097C243.539 166.908 243.364 167.909 243.017 169.102C242.67 170.253 241.961 171.295 240.89 172.228C240.462 172.61 239.927 172.971 239.285 173.309C238.686 173.647 238.002 173.943 237.233 174.195C236.464 174.405 235.567 174.572 234.543 174.695L234.608 174.311C236.438 175.301 238.011 176.631 239.326 178.301C240.641 179.971 241.655 181.896 242.371 184.076C243.086 186.255 243.437 188.625 243.425 191.185C243.402 196.134 242.339 199.841 240.237 202.306C238.177 204.771 235.42 205.995 231.964 205.979C230.129 205.97 228.53 205.728 227.167 205.252C225.847 204.734 224.656 203.939 223.594 202.868C222.533 201.753 221.516 200.298 220.543 198.501L222.592 198.191C221.601 200.362 220.484 202 219.241 203.103C218.041 204.207 216.736 204.948 215.327 205.325C213.917 205.702 212.444 205.887 210.908 205.88ZM211.636 200.828C213.769 200.838 215.5 200.099 216.83 198.612C218.16 197.125 218.937 195.144 219.162 192.671L224.026 192.694C224.226 195.553 225.069 197.648 226.557 198.978C228.087 200.265 229.726 200.912 231.475 200.921C233.523 200.93 235.148 200.213 236.35 198.767C237.551 197.322 238.16 194.851 238.176 191.352C238.187 189.133 237.855 187.02 237.182 185.011C236.552 183.003 235.579 181.228 234.263 179.685C232.948 178.143 231.289 176.941 229.288 176.078C227.33 175.173 225.028 174.714 222.382 174.702L221.294 174.697C218.649 174.684 216.322 175.079 214.313 175.88C212.304 176.681 210.613 177.825 209.241 179.312C207.868 180.799 206.836 182.544 206.144 184.546C205.452 186.505 205.101 188.679 205.089 191.069C205.073 194.567 205.637 197.066 206.782 198.565C207.927 200.064 209.545 200.818 211.636 200.828ZM245.346 219.226L245.673 217.318L257.629 207.261C259.226 205.905 260.512 204.744 261.486 203.779C262.461 202.814 263.192 201.931 263.681 201.13C264.185 200.314 264.514 199.46 264.67 198.566C264.935 197.022 264.554 195.74 263.529 194.72C262.503 193.7 261.074 193.186 259.241 193.177C257.301 193.168 255.617 193.721 254.187 194.835C252.773 195.935 251.933 197.287 251.668 198.892L249.077 198.88C249.467 196.624 250.627 194.75 252.558 193.259C254.505 191.753 256.804 191.007 259.455 191.019C261.198 191.027 262.681 191.368 263.905 192.04C265.129 192.712 266.019 193.633 266.574 194.802C267.144 195.957 267.305 197.26 267.056 198.714C266.869 199.834 266.493 200.878 265.927 201.845C265.362 202.812 264.501 203.861 263.344 204.992C262.203 206.123 260.658 207.502 258.711 209.129L249.516 216.882L249.515 216.995L265.311 217.07L264.891 219.318L245.346 219.226Z" fill="#A7F0DD" fill-opacity="0.4"/>
<path d="M106.831 281.738C104.656 281.778 102.813 281.385 101.305 280.56C99.7957 279.734 98.5171 278.67 97.4688 277.366C96.4196 276.02 95.455 274.63 94.575 273.195C93.4737 271.338 92.5305 269.947 91.7452 269.023C90.9599 268.099 90.2229 267.472 89.534 267.144C88.8878 266.814 88.1381 266.657 87.2849 266.673C85.8345 266.7 84.7127 267.19 83.9196 268.144C83.1683 269.054 82.8077 270.32 82.8377 271.941C82.863 273.306 83.1877 274.708 83.8118 276.147C84.4351 277.544 85.25 278.916 86.2565 280.263L81.3021 282.339C80.2956 280.992 79.4559 279.429 78.7828 277.649C78.1097 275.869 77.7561 274.062 77.7222 272.227C77.685 270.222 78.0788 268.444 78.9035 266.893C79.7282 265.341 80.8579 264.125 82.2925 263.245C83.7263 262.322 85.3391 261.845 87.1308 261.811C89.7757 261.762 91.8774 262.342 93.4361 263.551C94.9948 264.759 96.523 266.63 98.0209 269.163C99.0329 270.808 99.9548 272.2 100.787 273.336C101.661 274.472 102.595 275.33 103.587 275.909C104.578 276.445 105.778 276.7 107.186 276.674C109.191 276.637 110.781 276.096 111.956 275.05C113.132 274.004 113.98 272.558 114.5 270.714C115.021 268.869 115.259 266.752 115.215 264.363C115.145 260.567 114.481 256.994 113.224 253.646C111.967 250.299 110.291 247.364 108.196 244.842C106.144 242.32 103.803 240.357 101.174 238.955C98.5439 237.51 95.8212 236.814 93.0056 236.866C91.5979 236.892 90.5587 237.232 89.888 237.884C89.2173 238.537 88.8906 239.332 88.908 240.271C88.927 241.295 89.2619 242.099 89.9129 242.685C90.6065 243.269 91.5506 243.55 92.745 243.528C94.2808 243.5 95.6166 243.048 96.7526 242.174C97.8878 241.257 98.5415 239.687 98.7137 237.465L103.649 237.821C103.309 240.175 102.64 242.107 101.644 243.619C100.647 245.089 99.4086 246.179 97.9282 246.889C96.4477 247.599 94.8117 247.971 93.02 248.004C91.1856 248.038 89.5804 247.769 88.2042 247.197C86.8707 246.624 85.8307 245.769 85.0841 244.63C84.3368 243.449 83.9473 242.006 83.9157 240.299C83.8888 238.849 84.2486 237.541 84.9952 236.375C85.7409 235.166 86.79 234.208 88.1424 233.5C89.5375 232.791 91.1949 232.419 93.1146 232.383C96.8686 232.314 100.383 233.102 103.656 234.749C106.929 236.352 109.809 238.625 112.296 241.566C114.825 244.463 116.808 247.862 118.246 251.761C119.684 255.66 120.445 259.871 120.528 264.393C120.601 268.318 120.064 271.571 118.917 274.153C117.812 276.691 116.225 278.577 114.157 279.81C112.089 281.043 109.647 281.686 106.831 281.738ZM132.998 294.803C131.09 294.838 129.432 294.536 128.026 293.895C126.636 293.269 125.589 292.387 124.886 291.248C124.198 290.124 123.947 288.818 124.131 287.329L126.744 287.281C126.531 288.876 127.025 290.155 128.225 291.118C129.44 292.096 131.063 292.566 133.093 292.528C135.304 292.487 137.195 291.884 138.765 290.718C140.335 289.568 141.234 288.217 141.463 286.667C141.718 284.92 141.185 283.551 139.864 282.56C138.557 281.554 136.684 281.073 134.245 281.118L132.927 281.143L133.206 279.001L134.41 278.979C136.637 278.937 138.498 278.38 139.994 277.307C141.489 276.233 142.344 274.922 142.558 273.372C142.788 271.913 142.447 270.684 141.535 269.686C140.622 268.687 139.143 268.207 137.098 268.245C135.235 268.28 133.54 268.811 132.013 269.84C130.486 270.868 129.594 272.203 129.337 273.844L126.86 273.89C127.089 272.371 127.686 271.034 128.65 269.879C129.613 268.71 130.823 267.793 132.281 267.13C133.739 266.466 135.316 266.119 137.013 266.087C138.785 266.054 140.306 266.344 141.575 266.957C142.859 267.555 143.807 268.409 144.418 269.519C145.045 270.629 145.251 271.943 145.037 273.463C144.795 275.134 144.086 276.503 142.908 277.571C141.746 278.623 140.244 279.386 138.404 279.859L138.406 279.973C140.398 280.315 141.905 281.105 142.928 282.344C143.951 283.568 144.342 285.053 144.102 286.8C143.873 288.32 143.254 289.673 142.245 290.858C141.252 292.043 139.958 292.984 138.365 293.68C136.787 294.392 134.998 294.766 132.998 294.803Z" fill="#9CAC54" fill-opacity="0.4"/>
<path d="M339.864 249.584C337.987 249.584 336.387 250.032 335.064 250.928C333.741 251.781 332.632 252.933 331.736 254.384C330.84 255.835 330.093 257.477 329.496 259.312C329.155 260.379 328.877 261.573 328.664 262.896C328.451 264.219 328.28 265.712 328.152 267.376C328.067 269.04 328.024 270.917 328.024 273.008V280.048H322.2V271.92C322.2 268.549 322.456 265.371 322.968 262.384C323.523 259.397 324.483 256.731 325.848 254.384C327.213 252.037 329.155 250.16 331.672 248.752L332.76 249.712H322.008V244.784H343.704C346.008 244.784 347.629 244.677 348.568 244.464C349.507 244.251 350.211 243.973 350.68 243.632C351.235 243.205 351.597 242.736 351.768 242.224C351.981 241.669 352.088 241.093 352.088 240.496C352.088 239.088 351.747 237.723 351.064 236.4C350.381 235.035 349.336 233.648 347.928 232.24L352.088 229.488C354.093 231.707 355.459 233.712 356.184 235.504C356.909 237.253 357.272 239.045 357.272 240.88C357.272 242.544 356.888 243.995 356.12 245.232C355.352 246.469 354.307 247.451 352.984 248.176C351.704 248.901 350.211 249.349 348.504 249.52L348.888 249.264C351.32 251.056 353.133 253.147 354.328 255.536C355.523 257.883 356.312 260.443 356.696 263.216C357.08 265.947 357.272 268.784 357.272 271.728V280.048H351.448V273.008C351.448 270.875 351.384 268.933 351.256 267.184C351.128 265.392 350.936 263.771 350.68 262.32C350.467 260.869 350.147 259.611 349.72 258.544C348.696 255.771 347.416 253.595 345.88 252.016C344.387 250.395 342.381 249.584 339.864 249.584ZM369.705 294.364C367.795 294.364 366.144 294.03 364.75 293.364C363.371 292.712 362.341 291.811 361.659 290.659C360.992 289.523 360.765 288.212 360.977 286.727H363.591C363.348 288.318 363.818 289.606 365 290.591C366.197 291.591 367.811 292.091 369.841 292.091C372.053 292.091 373.955 291.523 375.545 290.386C377.136 289.265 378.061 287.932 378.318 286.386C378.606 284.644 378.098 283.265 376.795 282.25C375.508 281.22 373.644 280.705 371.205 280.705H369.886L370.205 278.568H371.409C373.636 278.568 375.508 278.045 377.023 277C378.538 275.955 379.417 274.659 379.659 273.114C379.917 271.659 379.598 270.424 378.705 269.409C377.811 268.394 376.341 267.886 374.295 267.886C372.432 267.886 370.727 268.386 369.182 269.386C367.636 270.386 366.72 271.705 366.432 273.341H363.955C364.212 271.826 364.833 270.5 365.818 269.364C366.803 268.212 368.03 267.318 369.5 266.682C370.97 266.045 372.553 265.727 374.25 265.727C376.023 265.727 377.538 266.045 378.795 266.682C380.068 267.303 381 268.174 381.591 269.295C382.197 270.417 382.379 271.735 382.136 273.25C381.864 274.917 381.129 276.273 379.932 277.318C378.75 278.348 377.235 279.083 375.386 279.523V279.636C377.371 280.015 378.864 280.833 379.864 282.091C380.864 283.333 381.227 284.826 380.955 286.568C380.697 288.083 380.053 289.424 379.023 290.591C378.008 291.758 376.697 292.674 375.091 293.341C373.5 294.023 371.705 294.364 369.705 294.364Z" fill="#A7F0DD" fill-opacity="0.4"/>
<line x1="38.3399" y1="300.809" x2="201.064" y2="19.6882" stroke="black" stroke-width="3"/>
<line x1="200" y1="18.5" x2="257.2" y2="18.5" stroke="black" stroke-width="3"/>
<line x1="256.312" y1="19.2735" x2="413.628" y2="303.456" stroke="black" stroke-width="3"/>
<line x1="99" y1="222.5" x2="354" y2="222.5" stroke="black" stroke-width="3"/>
<path opacity="0.3" d="M265.917 171.5H186.083L226 86.1797L265.917 171.5Z" fill="black" stroke="black"/>
</g>
<defs>
<filter id="filter0_g_1_2" x="0" y="0" width="444" height="356" filterUnits="userSpaceOnUse" color-interpolation-filters="sRGB">
<feFlood flood-opacity="0" result="BackgroundImageFix"/>
<feBlend mode="normal" in="SourceGraphic" in2="BackgroundImageFix" result="shape"/>
<feTurbulence type="fractalNoise" baseFrequency="0.25 0.25" numOctaves="3" seed="4370" />
<feDisplacementMap in="shape" scale="8" xChannelSelector="R" yChannelSelector="G" result="displacedImage" width="100%" height="100%" />
<feMerge result="effect1_texture_1_2">
<feMergeNode in="displacedImage"/>
</feMerge>
</filter>
</defs>
</svg>
